<svg width="25" height="24" viewBox="0 0 25 24" fill="none" xmlns="http://www.w3.org/2000/svg">
<g id="Icons/Dark/Menue">
<path id="Vector" d="M18.04 8.30989C18.6924 8.30989 19.3181 8.05071 19.7795 7.58938C20.2408 7.12804 20.5 6.50232 20.5 5.84989C20.5 5.19746 20.2408 4.57175 19.7795 4.11041C19.3181 3.64907 18.6924 3.38989 18.04 3.38989C17.3876 3.38989 16.7619 3.64907 16.3005 4.11041C15.8392 4.57175 15.58 5.19746 15.58 5.84989C15.58 6.50232 15.8392 7.12804 16.3005 7.58938C16.7619 8.05071 17.3876 8.30989 18.04 8.30989ZM6.96 8.30989C7.61243 8.30989 8.23814 8.05071 8.69948 7.58938C9.16082 7.12804 9.42 6.50232 9.42 5.84989C9.42 5.19746 9.16082 4.57175 8.69948 4.11041C8.23814 3.64907 7.61243 3.38989 6.96 3.38989C6.30757 3.38989 5.68186 3.64907 5.22052 4.11041C4.75918 4.57175 4.5 5.19746 4.5 5.84989C4.5 6.50232 4.75918 7.12804 5.22052 7.58938C5.68186 8.05071 6.30757 8.30989 6.96 8.30989ZM18.04 20.6099C18.3631 20.6099 18.6829 20.5463 18.9814 20.4226C19.2799 20.299 19.551 20.1178 19.7795 19.8894C20.0079 19.6609 20.1891 19.3898 20.3127 19.0913C20.4364 18.7928 20.5 18.4729 20.5 18.1499C20.5 17.8268 20.4364 17.507 20.3127 17.2085C20.1891 16.91 20.0079 16.6388 19.7795 16.4104C19.551 16.182 19.2799 16.0008 18.9814 15.8771C18.6829 15.7535 18.3631 15.6899 18.04 15.6899C17.3876 15.6899 16.7619 15.9491 16.3005 16.4104C15.8392 16.8717 15.58 17.4975 15.58 18.1499C15.58 18.8023 15.8392 19.428 16.3005 19.8894C16.7619 20.3507 17.3876 20.6099 18.04 20.6099ZM6.96 20.6099C7.28305 20.6099 7.60294 20.5463 7.9014 20.4226C8.19986 20.299 8.47105 20.1178 8.69948 19.8894C8.92792 19.6609 9.10912 19.3898 9.23274 19.0913C9.35637 18.7928 9.42 18.4729 9.42 18.1499C9.42 17.8268 9.35637 17.507 9.23274 17.2085C9.10912 16.91 8.92792 16.6388 8.69948 16.4104C8.47105 16.182 8.19986 16.0008 7.9014 15.8771C7.60294 15.7535 7.28305 15.6899 6.96 15.6899C6.30757 15.6899 5.68186 15.9491 5.22052 16.4104C4.75918 16.8717 4.5 17.4975 4.5 18.1499C4.5 18.8023 4.75918 19.428 5.22052 19.8894C5.68186 20.3507 6.30757 20.6099 6.96 20.6099Z" stroke="#111827" stroke-width="1.5" stroke-miterlimit="10" stroke-linecap="round" stroke-linejoin="round"/>
</g>
</svg>
